# xmcd CD database file
#
# Track frame offsets:
#	150
#	13321
#	27076
#	37480
#	51433
#	60977
#	76906
#	92723
#	103438
#	118777
#	130485
#	140702
#	151456
#	164003
#	181503
#	195093
#	207863
#	215620
#	226178
#	237385
#	251215
#	264352
#
# Disc length: 3691 seconds
#
# Revision: 0
# Processed by: cddbd v1.5.2PL0 Copyright (c) Steve Scherf et al.
# Submitted via: CDex 1.75
#
DISCID=410e6916
DTITLE=June Christy - June Christy Vol.2 - CD4
DYEAR=2013
DGENRE=Jazz
TTITLE0=Christmas Heart
TTITLE1=Ring A Merry Bell
TTITLE2=Hang Them On The Tree
TTITLE3=The Little Star
TTITLE4=The Merriest
TTITLE5=This Time Of Year
TTITLE6=Seven Shades Of Snow
TTITLE7=Sorry To See You Go
TTITLE8=The Magic Gift
TTITLE9=Winter's Got Spring Up Its Sleeve
TTITLE10=You Came A Long Way From Saint-Louis
TTITLE11=Swingin' On Nothin'
TTITLE12=Is You Is Or Is You Ain't My Baby
TTITLE13=Prelude To A Kiss
TTITLE14=Skyliner
TTITLE15=A Night In Tunisia
TTITLE16=It Don't Mean A Thing
TTITLE17=Frenesi
TTITLE18=Stompin' At The Savoy
TTITLE19=Goodbye
TTITLE20=Time Was
TTITLE21=Until
EXTD=YEAR: 2013
EXTT0=
EXTT1=
EXTT2=
EXTT3=
EXTT4=
EXTT5=
EXTT6=
EXTT7=
EXTT8=
EXTT9=
EXTT10=
EXTT11=
EXTT12=
EXTT13=
EXTT14=
EXTT15=
EXTT16=
EXTT17=
EXTT18=
EXTT19=
EXTT20=
EXTT21=
PLAYORDER=
